<svg width="24" height="25" viewBox="0 0 24 25" fill="none" xmlns="http://www.w3.org/2000/svg">
<path fill-rule="evenodd" clip-rule="evenodd" d="M21.923 10.8457C21.7806 11.8324 21.443 12.7703 20.9428 13.6327C20.9803 13.8462 20.9995 14.062 20.9995 14.2788C20.9995 15.0316 20.7814 15.7521 20.3774 16.4067C20.1757 16.7334 20.1238 17.1163 20.1038 17.3693C20.0809 17.6592 20.0886 17.9764 20.1093 18.2811C20.1325 18.623 20.1746 18.9819 20.2227 19.3205C19.8324 19.2067 19.4093 19.0924 19.0056 19.0013C18.6698 18.9255 18.3262 18.861 18.0149 18.8288C17.7434 18.8008 17.3511 18.7791 17.0003 18.8925C16.2332 19.1404 15.3891 19.2788 14.4995 19.2788C13.4416 19.2788 12.47 19.091 11.6184 18.7648C11.4135 18.7741 11.2072 18.7788 10.9995 18.7788C9.7949 18.7788 8.63552 18.6204 7.55078 18.3276C9.12774 20.1514 11.7274 21.2788 14.4995 21.2788C15.5825 21.2788 16.6219 21.1125 17.5797 20.807C17.5814 20.807 17.5845 20.807 17.589 20.8069C17.6136 20.8064 17.6819 20.8051 17.8094 20.8182C18.01 20.839 18.268 20.8852 18.5655 20.9523C19.1578 21.0859 19.8235 21.2831 20.3423 21.4478C21.4424 21.797 22.5084 20.8369 22.3118 19.7206C22.2271 19.24 22.1392 18.6536 22.1047 18.1456C22.0874 17.8901 22.0855 17.6805 22.0976 17.5266C22.1026 17.4629 22.1091 17.4229 22.1132 17.4016C22.6758 16.4696 22.9995 15.4085 22.9995 14.2788C22.9995 13.0052 22.604 11.8423 21.923 10.8457Z" fill="#2A94E2"/>
<path fill-rule="evenodd" clip-rule="evenodd" d="M5.59664 5.97648C4.24868 7.00727 3.49959 8.36041 3.49959 9.77832C3.49959 10.4854 3.68366 11.1663 4.02898 11.7996C4.1605 12.0407 4.19782 12.2895 4.21116 12.4579C4.22571 12.6416 4.21845 12.8303 4.20248 13.0068C4.17051 13.3602 4.09423 13.7606 4.00274 14.155C3.89572 14.6163 3.75859 15.1082 3.61943 15.5701C4.14769 15.3781 4.72505 15.1814 5.2724 15.0217C5.71477 14.8926 6.16151 14.7806 6.55911 14.7178C6.90162 14.6636 7.39864 14.6104 7.82655 14.7584C8.78688 15.0907 9.86117 15.2783 10.9996 15.2783C13.1468 15.2783 15.0537 14.6117 16.4026 13.5802C17.7505 12.5494 18.4996 11.1962 18.4996 9.77832C18.4996 8.36041 17.7505 7.00727 16.4026 5.97648C15.0537 4.94499 13.1468 4.27832 10.9996 4.27832C8.85242 4.27832 6.94552 4.94499 5.59664 5.97648ZM4.38174 4.38777C6.10925 3.06673 8.45234 2.27832 10.9996 2.27832C13.5468 2.27832 15.8899 3.06673 17.6175 4.38777C19.3459 5.70951 20.4996 7.60638 20.4996 9.77832C20.4996 11.9503 19.3459 13.8471 17.6175 15.1689C15.8899 16.4899 13.5468 17.2783 10.9996 17.2783C9.65654 17.2783 8.37366 17.0594 7.20886 16.661C7.2077 16.6642 7.11322 16.655 6.87147 16.6932C6.59282 16.7373 6.23713 16.8236 5.83253 16.9416C5.02707 17.1766 4.12252 17.5091 3.43353 17.7772C2.2399 18.2417 1.02395 17.0954 1.42611 15.8743C1.63926 15.2271 1.89065 14.4092 2.05449 13.703C2.13702 13.3472 2.19058 13.0481 2.21062 12.8266C2.21758 12.7497 2.21938 12.6937 2.21897 12.6558C1.75869 11.7762 1.49959 10.8036 1.49959 9.77832C1.49959 7.60638 2.6533 5.70952 4.38174 4.38777Z" fill="#2A94E2"/>
</svg>
