<svg width="24" height="25" viewBox="0 0 24 25" fill="none" xmlns="http://www.w3.org/2000/svg">
<path fill-rule="evenodd" clip-rule="evenodd" d="M12 8.0481C10.8954 8.0481 10 8.94353 10 10.0481C10 11.1527 10.8954 12.0481 12 12.0481C13.1046 12.0481 14 11.1527 14 10.0481C14 8.94353 13.1046 8.0481 12 8.0481ZM8 10.0481C8 7.83896 9.79086 6.0481 12 6.0481C14.2091 6.0481 16 7.83896 16 10.0481C16 12.2572 14.2091 14.0481 12 14.0481C9.79086 14.0481 8 12.2572 8 10.0481Z" fill="#2A94E2"/>
<path fill-rule="evenodd" clip-rule="evenodd" d="M12 3.5481C8.38046 3.5481 5.5 6.38416 5.5 9.81733C5.5 12.6161 7.18201 15.4429 9.02064 17.6663C9.92325 18.7578 10.8284 19.662 11.5085 20.2932C11.6904 20.4621 11.8557 20.611 12 20.7383C12.1443 20.611 12.3096 20.4621 12.4915 20.2932C13.1716 19.662 14.0768 18.7578 14.9794 17.6663C16.818 15.4429 18.5 12.6161 18.5 9.81733C18.5 6.38416 15.6195 3.5481 12 3.5481ZM12 22.0481C11.3812 22.8336 11.3809 22.8334 11.3807 22.8332L11.3782 22.8313L11.3725 22.8268L11.3531 22.8113C11.3367 22.7981 11.3134 22.7793 11.2836 22.755C11.224 22.7064 11.1386 22.6358 11.031 22.5446C10.8158 22.3621 10.5115 22.0967 10.1478 21.759C9.42158 21.0849 8.45175 20.1168 7.47936 18.9409C5.56799 16.6295 3.5 13.3409 3.5 9.81733C3.5 5.22113 7.33527 1.5481 12 1.5481C16.6647 1.5481 20.5 5.22113 20.5 9.81733C20.5 13.3409 18.432 16.6295 16.5206 18.9409C15.5482 20.1168 14.5784 21.0849 13.8522 21.759C13.4885 22.0967 13.1842 22.3621 12.969 22.5446C12.8614 22.6358 12.776 22.7064 12.7164 22.755C12.6866 22.7793 12.6633 22.7981 12.6469 22.8113L12.6275 22.8268L12.6218 22.8313L12.62 22.8327C12.6197 22.8329 12.6188 22.8336 12 22.0481ZM12 22.0481L12.6188 22.8336C12.2558 23.1196 11.7437 23.1192 11.3807 22.8332L12 22.0481Z" fill="#2A94E2"/>
</svg>
