<svg width="24" height="25" viewBox="0 0 24 25" fill="none" xmlns="http://www.w3.org/2000/svg">
<path fill-rule="evenodd" clip-rule="evenodd" d="M8.5 3.71021C7.67157 3.71021 7 4.38178 7 5.21021V20.3665C7 21.1949 7.67157 21.8665 8.5 21.8665H15.5C16.3284 21.8665 17 21.1949 17 20.3665V5.21021C17 4.38178 16.3284 3.71021 15.5 3.71021H15.4166L15.1731 4.29466C15.0178 4.66727 14.6537 4.90998 14.25 4.90998H9.75C9.34632 4.90998 8.98223 4.66727 8.82695 4.29466L8.58338 3.71021H8.5ZM5 5.21021C5 3.27721 6.567 1.71021 8.5 1.71021H15.5C17.433 1.71021 19 3.27721 19 5.21021V20.3665C19 22.2995 17.433 23.8665 15.5 23.8665H8.5C6.567 23.8665 5 22.2995 5 20.3665V5.21021Z" fill="#2A94E2"/>
</svg>
